# xmcd
#
# Track frame offsets: 
#        150
#        9439
#        24449
#        36620
#        48453
#        61741
#        77310
#        87967
#        100683
#        118184
#        130764
#        144121
#
# Disc length: 2140 seconds
#
# Revision: 0
# Processed by: cddbd v1.5.2PL0 Copyright (c) Steve Scherf et al.
# Submitted via: ExactAudioCopy v1.1
#
DISCID=8c085a0c
DTITLE=Odetta - Sometimes I Feel Like Crying
DYEAR=1900
DGENRE=Blues
TTITLE0=Gonna Take My Time
TTITLE1=Stranger Here
TTITLE2=I've Been Living With The Blues
TTITLE3=Be My Woman
TTITLE4=Poor Man
TTITLE5=Empty Pocket Blues
TTITLE6=I Just Can't Keep From Cryin'
TTITLE7=Special Delivery
TTITLE8=If I Had Wings
TTITLE9=Darlin' Baby
TTITLE10=Misery Blue
TTITLE11=House Of The Rising Sun
EXTD=
EXTT0=
EXTT1=
EXTT2=
EXTT3=
EXTT4=
EXTT5=
EXTT6=
EXTT7=
EXTT8=
EXTT9=
EXTT10=
EXTT11=
PLAYORDER=
